<svg width="149" height="25" viewBox="0 0 149 25" fill="none" xmlns="http://www.w3.org/2000/svg">
<path d="M12.616 12.7473C13.8523 12.9778 14.8686 13.5959 15.6649 14.6018C16.4612 15.6076 16.8593 16.7601 16.8593 18.0593C16.8593 19.2328 16.5659 20.27 15.9792 21.1711C15.4134 22.0512 14.5857 22.7427 13.4961 23.2456C12.4064 23.7485 11.1177 24 9.62991 24H0.168821V2.06034H9.22129C10.7091 2.06034 11.9873 2.30132 13.056 2.78328C14.1457 3.26524 14.9629 3.93579 15.5077 4.79494C16.0735 5.65408 16.3564 6.62848 16.3564 7.71813C16.3564 8.99637 16.0106 10.0651 15.3191 10.9242C14.6486 11.7834 13.7475 12.391 12.616 12.7473ZM4.56933 11.1128H8.59265C9.64039 11.1128 10.4471 10.8823 11.0129 10.4213C11.5787 9.93934 11.8616 9.25831 11.8616 8.37821C11.8616 7.4981 11.5787 6.81707 11.0129 6.33511C10.4471 5.85315 9.64039 5.61217 8.59265 5.61217H4.56933V11.1128ZM9.00126 20.4167C10.07 20.4167 10.8977 20.1653 11.4844 19.6624C12.0921 19.1594 12.3959 18.447 12.3959 17.525C12.3959 16.582 12.0816 15.8486 11.453 15.3247C10.8243 14.7799 9.97566 14.5075 8.90697 14.5075H4.56933V20.4167H9.00126ZM27.8787 2.06034C30.1838 2.06034 32.2059 2.51086 33.9452 3.41192C35.7054 4.31298 37.0569 5.60169 37.9999 7.27808C38.9638 8.93351 39.4458 10.8613 39.4458 13.0616C39.4458 15.2619 38.9638 17.1897 37.9999 18.8451C37.0569 20.4796 35.7054 21.7474 33.9452 22.6484C32.2059 23.5495 30.1838 24 27.8787 24H20.2093V2.06034H27.8787ZM27.7216 20.2596C30.0266 20.2596 31.8078 19.6309 33.0651 18.3736C34.3223 17.1164 34.951 15.3457 34.951 13.0616C34.951 10.7775 34.3223 8.99637 33.0651 7.71813C31.8078 6.41893 30.0266 5.76933 27.7216 5.76933H24.6098V20.2596H27.7216ZM54.9669 24L46.9831 14.2246V24H42.5826V2.06034H46.9831V11.8986L54.9669 2.06034H60.2789L51.2265 12.9359L60.5304 24H54.9669ZM83.0474 12.7473C84.2837 12.9778 85.3 13.5959 86.0963 14.6018C86.8926 15.6076 87.2907 16.7601 87.2907 18.0593C87.2907 19.2328 86.9974 20.27 86.4106 21.1711C85.8448 22.0512 85.0171 22.7427 83.9275 23.2456C82.8378 23.7485 81.5491 24 80.0613 24H70.6002V2.06034H79.6527C81.1405 2.06034 82.4187 2.30132 83.4874 2.78328C84.5771 3.26524 85.3943 3.93579 85.9391 4.79494C86.5049 5.65408 86.7878 6.62848 86.7878 7.71813C86.7878 8.99637 86.4421 10.0651 85.7506 10.9242C85.08 11.7834 84.1789 12.391 83.0474 12.7473ZM75.0007 11.1128H79.0241C80.0718 11.1128 80.8786 10.8823 81.4443 10.4213C82.0101 9.93934 82.293 9.25831 82.293 8.37821C82.293 7.4981 82.0101 6.81707 81.4443 6.33511C80.8786 5.85315 80.0718 5.61217 79.0241 5.61217H75.0007V11.1128ZM79.4327 20.4167C80.5014 20.4167 81.3291 20.1653 81.9158 19.6624C82.5235 19.1594 82.8274 18.447 82.8274 17.525C82.8274 16.582 82.513 15.8486 81.8844 15.3247C81.2558 14.7799 80.4071 14.5075 79.3384 14.5075H75.0007V20.4167H79.4327ZM89.5091 15.2304C89.5091 13.4702 89.8549 11.9091 90.5464 10.547C91.2589 9.18496 92.2123 8.13722 93.4067 7.40381C94.6221 6.67039 95.9737 6.30368 97.4615 6.30368C98.7607 6.30368 99.8922 6.56562 100.856 7.08948C101.841 7.61335 102.627 8.27343 103.214 9.06971V6.58657H107.646V24H103.214V21.454C102.648 22.2712 101.862 22.9523 100.856 23.4971C99.8713 24.021 98.7293 24.2829 97.4301 24.2829C95.9632 24.2829 94.6221 23.9057 93.4067 23.1513C92.2123 22.397 91.2589 21.3387 90.5464 19.9767C89.8549 18.5937 89.5091 17.0116 89.5091 15.2304ZM103.214 15.2933C103.214 14.2246 103.004 13.3131 102.585 12.5587C102.166 11.7834 101.6 11.1966 100.888 10.7985C100.175 10.3794 99.4103 10.1698 98.593 10.1698C97.7758 10.1698 97.0214 10.3689 96.3299 10.7671C95.6384 11.1652 95.0726 11.7519 94.6326 12.5273C94.2135 13.2816 94.004 14.1827 94.004 15.2304C94.004 16.2782 94.2135 17.2002 94.6326 17.9965C95.0726 18.7718 95.6384 19.369 96.3299 19.7881C97.0424 20.2072 97.7968 20.4167 98.593 20.4167C99.4103 20.4167 100.175 20.2177 100.888 19.8195C101.6 19.4004 102.166 18.8137 102.585 18.0593C103.004 17.284 103.214 16.362 103.214 15.2933ZM121.436 6.33511C123.51 6.33511 125.187 6.99519 126.465 8.31534C127.743 9.61454 128.382 11.4376 128.382 13.7845V24H123.982V14.3818C123.982 12.9987 123.636 11.9405 122.945 11.2071C122.253 10.4527 121.31 10.0755 120.116 10.0755C118.9 10.0755 117.936 10.4527 117.224 11.2071C116.532 11.9405 116.187 12.9987 116.187 14.3818V24H111.786V6.58657H116.187V8.75539C116.773 8.00102 117.517 7.41428 118.418 6.99519C119.34 6.55514 120.346 6.33511 121.436 6.33511ZM142.72 24L136.81 16.582V24H132.41V0.740185H136.81V13.9731L142.657 6.58657H148.377L140.708 15.3247L148.44 24H142.72Z" fill="#5771F9"/>
</svg>
